<mxfile host="app.diagrams.net" agent="Mozilla/5.0 (Windows NT 10.0; Win64; x64) AppleWebKit/537.36 (KHTML, like Gecko) Chrome/131.0.0.0 Safari/537.36" version="25.0.3">
  <diagram name="Page-1" id="KOJL5SAoYAYIbk9zPLsi">
    <mxGraphModel dx="794" dy="446" grid="1" gridSize="10" guides="1" tooltips="1" connect="1" arrows="1" fold="1" page="1" pageScale="1" pageWidth="827" pageHeight="1169" math="0" shadow="0">
      <root>
        <mxCell id="0" />
        <mxCell id="1" parent="0" />
        <mxCell id="uMdD4-_RnNRwG7ZbI6EM-27" style="edgeStyle=orthogonalEdgeStyle;rounded=0;orthogonalLoop=1;jettySize=auto;html=1;exitX=0.5;exitY=1;exitDx=0;exitDy=0;entryX=0.5;entryY=0;entryDx=0;entryDy=0;" edge="1" parent="1" source="uMdD4-_RnNRwG7ZbI6EM-5" target="uMdD4-_RnNRwG7ZbI6EM-6">
          <mxGeometry relative="1" as="geometry" />
        </mxCell>
        <mxCell id="uMdD4-_RnNRwG7ZbI6EM-5" value="Start" style="rounded=1;whiteSpace=wrap;html=1;" vertex="1" parent="1">
          <mxGeometry x="200" y="80" width="120" height="40" as="geometry" />
        </mxCell>
        <mxCell id="uMdD4-_RnNRwG7ZbI6EM-28" style="edgeStyle=orthogonalEdgeStyle;rounded=0;orthogonalLoop=1;jettySize=auto;html=1;exitX=0.5;exitY=1;exitDx=0;exitDy=0;entryX=0.5;entryY=0;entryDx=0;entryDy=0;" edge="1" parent="1" source="uMdD4-_RnNRwG7ZbI6EM-6" target="uMdD4-_RnNRwG7ZbI6EM-26">
          <mxGeometry relative="1" as="geometry" />
        </mxCell>
        <mxCell id="uMdD4-_RnNRwG7ZbI6EM-6" value="User connects to websockets" style="whiteSpace=wrap;html=1;rounded=1;" vertex="1" parent="1">
          <mxGeometry x="200" y="160" width="120" height="40" as="geometry" />
        </mxCell>
        <mxCell id="uMdD4-_RnNRwG7ZbI6EM-30" style="edgeStyle=orthogonalEdgeStyle;rounded=0;orthogonalLoop=1;jettySize=auto;html=1;exitX=1;exitY=0.5;exitDx=0;exitDy=0;entryX=0;entryY=0.5;entryDx=0;entryDy=0;" edge="1" parent="1" source="uMdD4-_RnNRwG7ZbI6EM-10" target="uMdD4-_RnNRwG7ZbI6EM-11">
          <mxGeometry relative="1" as="geometry" />
        </mxCell>
        <mxCell id="uMdD4-_RnNRwG7ZbI6EM-10" value="Success" style="rounded=1;whiteSpace=wrap;html=1;" vertex="1" parent="1">
          <mxGeometry x="400" y="240" width="120" height="40" as="geometry" />
        </mxCell>
        <mxCell id="uMdD4-_RnNRwG7ZbI6EM-11" value="Assign Websocket ID" style="rounded=1;whiteSpace=wrap;html=1;" vertex="1" parent="1">
          <mxGeometry x="600" y="240" width="120" height="40" as="geometry" />
        </mxCell>
        <mxCell id="uMdD4-_RnNRwG7ZbI6EM-32" style="edgeStyle=orthogonalEdgeStyle;rounded=0;orthogonalLoop=1;jettySize=auto;html=1;exitX=0.5;exitY=1;exitDx=0;exitDy=0;entryX=0.5;entryY=0;entryDx=0;entryDy=0;" edge="1" parent="1" source="uMdD4-_RnNRwG7ZbI6EM-12" target="uMdD4-_RnNRwG7ZbI6EM-13">
          <mxGeometry relative="1" as="geometry" />
        </mxCell>
        <mxCell id="uMdD4-_RnNRwG7ZbI6EM-12" value="User send message" style="rounded=1;whiteSpace=wrap;html=1;" vertex="1" parent="1">
          <mxGeometry x="200" y="360" width="120" height="40" as="geometry" />
        </mxCell>
        <mxCell id="uMdD4-_RnNRwG7ZbI6EM-33" style="edgeStyle=orthogonalEdgeStyle;rounded=0;orthogonalLoop=1;jettySize=auto;html=1;exitX=0.5;exitY=1;exitDx=0;exitDy=0;entryX=0.5;entryY=0;entryDx=0;entryDy=0;" edge="1" parent="1" source="uMdD4-_RnNRwG7ZbI6EM-13" target="uMdD4-_RnNRwG7ZbI6EM-14">
          <mxGeometry relative="1" as="geometry" />
        </mxCell>
        <mxCell id="uMdD4-_RnNRwG7ZbI6EM-34" style="edgeStyle=orthogonalEdgeStyle;rounded=0;orthogonalLoop=1;jettySize=auto;html=1;exitX=0.5;exitY=1;exitDx=0;exitDy=0;entryX=0.5;entryY=0;entryDx=0;entryDy=0;" edge="1" parent="1" source="uMdD4-_RnNRwG7ZbI6EM-13" target="uMdD4-_RnNRwG7ZbI6EM-15">
          <mxGeometry relative="1" as="geometry" />
        </mxCell>
        <mxCell id="uMdD4-_RnNRwG7ZbI6EM-13" value="Message type checked" style="rounded=1;whiteSpace=wrap;html=1;" vertex="1" parent="1">
          <mxGeometry x="200" y="440" width="120" height="40" as="geometry" />
        </mxCell>
        <mxCell id="uMdD4-_RnNRwG7ZbI6EM-35" style="edgeStyle=orthogonalEdgeStyle;rounded=0;orthogonalLoop=1;jettySize=auto;html=1;exitX=0.5;exitY=1;exitDx=0;exitDy=0;entryX=0.5;entryY=0;entryDx=0;entryDy=0;" edge="1" parent="1" source="uMdD4-_RnNRwG7ZbI6EM-14" target="uMdD4-_RnNRwG7ZbI6EM-16">
          <mxGeometry relative="1" as="geometry" />
        </mxCell>
        <mxCell id="uMdD4-_RnNRwG7ZbI6EM-14" value="Direct mesage" style="rounded=1;whiteSpace=wrap;html=1;" vertex="1" parent="1">
          <mxGeometry x="200" y="520" width="120" height="40" as="geometry" />
        </mxCell>
        <mxCell id="uMdD4-_RnNRwG7ZbI6EM-36" style="edgeStyle=orthogonalEdgeStyle;rounded=0;orthogonalLoop=1;jettySize=auto;html=1;exitX=0.5;exitY=1;exitDx=0;exitDy=0;entryX=0.5;entryY=0;entryDx=0;entryDy=0;" edge="1" parent="1" source="uMdD4-_RnNRwG7ZbI6EM-15" target="uMdD4-_RnNRwG7ZbI6EM-17">
          <mxGeometry relative="1" as="geometry" />
        </mxCell>
        <mxCell id="uMdD4-_RnNRwG7ZbI6EM-15" value="Group Message&amp;nbsp;" style="rounded=1;whiteSpace=wrap;html=1;" vertex="1" parent="1">
          <mxGeometry x="440" y="520" width="120" height="40" as="geometry" />
        </mxCell>
        <mxCell id="uMdD4-_RnNRwG7ZbI6EM-37" style="edgeStyle=orthogonalEdgeStyle;rounded=0;orthogonalLoop=1;jettySize=auto;html=1;exitX=0.5;exitY=1;exitDx=0;exitDy=0;entryX=0.5;entryY=0;entryDx=0;entryDy=0;" edge="1" parent="1" source="uMdD4-_RnNRwG7ZbI6EM-16" target="uMdD4-_RnNRwG7ZbI6EM-18">
          <mxGeometry relative="1" as="geometry" />
        </mxCell>
        <mxCell id="uMdD4-_RnNRwG7ZbI6EM-16" value="Send particular User" style="rounded=1;whiteSpace=wrap;html=1;" vertex="1" parent="1">
          <mxGeometry x="200" y="600" width="120" height="40" as="geometry" />
        </mxCell>
        <mxCell id="uMdD4-_RnNRwG7ZbI6EM-38" style="edgeStyle=orthogonalEdgeStyle;rounded=0;orthogonalLoop=1;jettySize=auto;html=1;exitX=0.5;exitY=1;exitDx=0;exitDy=0;" edge="1" parent="1" source="uMdD4-_RnNRwG7ZbI6EM-17">
          <mxGeometry relative="1" as="geometry">
            <mxPoint x="380" y="680" as="targetPoint" />
          </mxGeometry>
        </mxCell>
        <mxCell id="uMdD4-_RnNRwG7ZbI6EM-17" value="Brodcast to group members" style="rounded=1;whiteSpace=wrap;html=1;" vertex="1" parent="1">
          <mxGeometry x="440" y="600" width="120" height="40" as="geometry" />
        </mxCell>
        <mxCell id="uMdD4-_RnNRwG7ZbI6EM-39" style="edgeStyle=orthogonalEdgeStyle;rounded=0;orthogonalLoop=1;jettySize=auto;html=1;exitX=0.5;exitY=1;exitDx=0;exitDy=0;entryX=0.5;entryY=0;entryDx=0;entryDy=0;" edge="1" parent="1" source="uMdD4-_RnNRwG7ZbI6EM-18" target="uMdD4-_RnNRwG7ZbI6EM-19">
          <mxGeometry relative="1" as="geometry" />
        </mxCell>
        <mxCell id="uMdD4-_RnNRwG7ZbI6EM-18" value="&lt;font style=&quot;font-size: 10px;&quot;&gt;Acknowledge Message status (delivered)&lt;/font&gt;" style="rounded=1;whiteSpace=wrap;html=1;" vertex="1" parent="1">
          <mxGeometry x="320" y="680" width="120" height="40" as="geometry" />
        </mxCell>
        <mxCell id="uMdD4-_RnNRwG7ZbI6EM-40" style="edgeStyle=orthogonalEdgeStyle;rounded=0;orthogonalLoop=1;jettySize=auto;html=1;exitX=0.5;exitY=1;exitDx=0;exitDy=0;entryX=0.5;entryY=0;entryDx=0;entryDy=0;" edge="1" parent="1" source="uMdD4-_RnNRwG7ZbI6EM-19" target="uMdD4-_RnNRwG7ZbI6EM-21">
          <mxGeometry relative="1" as="geometry" />
        </mxCell>
        <mxCell id="uMdD4-_RnNRwG7ZbI6EM-19" value="Update status (read)" style="rounded=1;whiteSpace=wrap;html=1;" vertex="1" parent="1">
          <mxGeometry x="320" y="760" width="120" height="40" as="geometry" />
        </mxCell>
        <mxCell id="uMdD4-_RnNRwG7ZbI6EM-41" style="edgeStyle=orthogonalEdgeStyle;rounded=0;orthogonalLoop=1;jettySize=auto;html=1;exitX=1;exitY=0.5;exitDx=0;exitDy=0;entryX=0;entryY=0.5;entryDx=0;entryDy=0;" edge="1" parent="1" source="uMdD4-_RnNRwG7ZbI6EM-21" target="uMdD4-_RnNRwG7ZbI6EM-22">
          <mxGeometry relative="1" as="geometry" />
        </mxCell>
        <mxCell id="uMdD4-_RnNRwG7ZbI6EM-42" style="edgeStyle=orthogonalEdgeStyle;rounded=0;orthogonalLoop=1;jettySize=auto;html=1;exitX=0.5;exitY=1;exitDx=0;exitDy=0;entryX=0.5;entryY=0;entryDx=0;entryDy=0;" edge="1" parent="1" source="uMdD4-_RnNRwG7ZbI6EM-21" target="uMdD4-_RnNRwG7ZbI6EM-23">
          <mxGeometry relative="1" as="geometry" />
        </mxCell>
        <mxCell id="uMdD4-_RnNRwG7ZbI6EM-21" value="User disconnects" style="rounded=1;whiteSpace=wrap;html=1;" vertex="1" parent="1">
          <mxGeometry x="320" y="840" width="120" height="40" as="geometry" />
        </mxCell>
        <mxCell id="uMdD4-_RnNRwG7ZbI6EM-22" value="Disconnect Handeling" style="rounded=1;whiteSpace=wrap;html=1;" vertex="1" parent="1">
          <mxGeometry x="560" y="840" width="120" height="40" as="geometry" />
        </mxCell>
        <mxCell id="uMdD4-_RnNRwG7ZbI6EM-43" style="edgeStyle=orthogonalEdgeStyle;rounded=0;orthogonalLoop=1;jettySize=auto;html=1;exitX=1;exitY=0.5;exitDx=0;exitDy=0;entryX=0;entryY=0.5;entryDx=0;entryDy=0;" edge="1" parent="1" source="uMdD4-_RnNRwG7ZbI6EM-23" target="uMdD4-_RnNRwG7ZbI6EM-24">
          <mxGeometry relative="1" as="geometry" />
        </mxCell>
        <mxCell id="uMdD4-_RnNRwG7ZbI6EM-23" value="User reconnect" style="rounded=1;whiteSpace=wrap;html=1;" vertex="1" parent="1">
          <mxGeometry x="320" y="920" width="120" height="40" as="geometry" />
        </mxCell>
        <mxCell id="uMdD4-_RnNRwG7ZbI6EM-44" style="edgeStyle=orthogonalEdgeStyle;rounded=0;orthogonalLoop=1;jettySize=auto;html=1;exitX=1;exitY=0.5;exitDx=0;exitDy=0;entryX=0;entryY=0.5;entryDx=0;entryDy=0;" edge="1" parent="1" source="uMdD4-_RnNRwG7ZbI6EM-24" target="uMdD4-_RnNRwG7ZbI6EM-25">
          <mxGeometry relative="1" as="geometry" />
        </mxCell>
        <mxCell id="uMdD4-_RnNRwG7ZbI6EM-24" value="Last seen" style="rounded=1;whiteSpace=wrap;html=1;" vertex="1" parent="1">
          <mxGeometry x="560" y="920" width="120" height="40" as="geometry" />
        </mxCell>
        <mxCell id="uMdD4-_RnNRwG7ZbI6EM-25" value="Messaging History" style="rounded=1;whiteSpace=wrap;html=1;" vertex="1" parent="1">
          <mxGeometry x="760" y="920" width="120" height="40" as="geometry" />
        </mxCell>
        <mxCell id="uMdD4-_RnNRwG7ZbI6EM-29" style="edgeStyle=orthogonalEdgeStyle;rounded=0;orthogonalLoop=1;jettySize=auto;html=1;exitX=1;exitY=0.5;exitDx=0;exitDy=0;entryX=0;entryY=0.5;entryDx=0;entryDy=0;" edge="1" parent="1" source="uMdD4-_RnNRwG7ZbI6EM-26" target="uMdD4-_RnNRwG7ZbI6EM-10">
          <mxGeometry relative="1" as="geometry" />
        </mxCell>
        <mxCell id="uMdD4-_RnNRwG7ZbI6EM-31" style="edgeStyle=orthogonalEdgeStyle;rounded=0;orthogonalLoop=1;jettySize=auto;html=1;exitX=0.5;exitY=1;exitDx=0;exitDy=0;entryX=0.5;entryY=0;entryDx=0;entryDy=0;" edge="1" parent="1" source="uMdD4-_RnNRwG7ZbI6EM-26" target="uMdD4-_RnNRwG7ZbI6EM-12">
          <mxGeometry relative="1" as="geometry" />
        </mxCell>
        <mxCell id="uMdD4-_RnNRwG7ZbI6EM-26" value="&lt;font style=&quot;font-size: 10px;&quot;&gt;Authenticate &lt;br&gt;user&lt;/font&gt;" style="rhombus;whiteSpace=wrap;html=1;" vertex="1" parent="1">
          <mxGeometry x="220" y="240" width="80" height="80" as="geometry" />
        </mxCell>
      </root>
    </mxGraphModel>
  </diagram>
</mxfile>
